<svg height="488pt" viewBox="-26 0 488 488.876" width="488pt" xmlns="http://www.w3.org/2000/svg"><path d="m215.867188 484.875h-93.648438c-2.207031 0-4-1.789062-4-4v-35.835938c7.289062 1.421876 14.808594 2.1875 22.507812 2.1875 30.535157 0 58.320313-11.714843 79.140626-30.882812v64.535156c0 2.207032-1.792969 3.996094-4 3.996094zm0 0" fill="#f9cfcf"/><path d="m215.867188 488.875h-93.648438c-4.410156 0-8-3.585938-8-8v-35.835938c0-1.195312.539062-2.328124 1.460938-3.085937.921874-.757813 2.136718-1.070313 3.304687-.835937 7.195313 1.402343 14.507813 2.113281 21.742187 2.113281 28.394532 0 55.539063-10.59375 76.429688-29.828125 1.171875-1.078125 2.867188-1.359375 4.316406-.71875 1.457032.636718 2.394532 2.074218 2.394532 3.664062v64.53125c0 4.410156-3.589844 7.996094-8 7.996094zm-93.648438-39.078125v31.082031h93.652344l-.003906-55.847656c-21.328126 16.949219-47.6875 26.199219-75.140626 26.199219-6.152343-.003907-12.359374-.484375-18.507812-1.433594zm0 0" fill="#3762cc"/><path d="m140.726562 135.03125c-64.554687 0-116.890624 52.332031-116.890624 116.890625v78.414063c0 1.046874.050781 2.078124.078124 3.121093h-1.351562c-8.085938 0-14.640625 6.558594-14.640625 14.644531 0 8.085938 6.554687 14.640626 14.640625 14.640626h5.859375c14.054687 48.785156 58.996094 84.484374 112.304687 84.484374 64.558594 0 116.894532-52.335937 116.894532-116.890624v-78.414063c0-64.558594-52.335938-116.890625-116.894532-116.890625zm0 0" fill="#f9cfcf"/><path d="m75.417969 316.820312c-27.324219 0-38.019531-24.074218-38.140625-24.355468-.871094-2.03125.070312-4.382813 2.101562-5.253906 2.027344-.871094 4.375.066406 5.246094 2.089843.492188 1.125 12.140625 26.746094 44.046875 17.496094 2.113281-.613281 4.339844.605469 4.953125 2.726563.617188 2.121093-.605469 4.339843-2.726562 4.957031-5.667969 1.640625-10.816407 2.339843-15.480469 2.339843zm0 0" fill="#3762cc"/><path d="m77.828125 400.875c-.8125 0-1.636719-.246094-2.347656-.761719-9.214844-6.699219-21.382813-8.148437-31.746094-3.789062-2.039063.859375-4.382813-.101563-5.238281-2.136719-.855469-2.039062.101562-4.382812 2.136718-5.238281 12.925782-5.4375 28.078126-3.640625 39.550782 4.691406 1.785156 1.296875 2.183594 3.800781.882812 5.585937-.78125 1.078126-2 1.648438-3.238281 1.648438zm0 0" fill="#3762cc"/><path d="m140.726562 451.226562c-52.550781 0-99.523437-34.589843-115.273437-84.484374h-2.886719c-10.28125 0-18.640625-8.363282-18.640625-18.640626 0-9.355468 6.921875-17.121093 15.910157-18.445312v-77.734375c0-66.660156 54.230468-120.890625 120.890624-120.890625 66.660157 0 120.894532 54.230469 120.894532 120.890625v78.414063c0 66.65625-54.234375 120.890624-120.894532 120.890624zm-118.160156-113.769531c-5.871094 0-10.640625 4.773438-10.640625 10.644531 0 5.867188 4.773438 10.640626 10.640625 10.640626h5.859375c1.78125 0 3.347657 1.179687 3.84375 2.890624 13.839844 48.042969 58.441407 81.59375 108.457031 81.59375 62.25 0 112.894532-50.640624 112.894532-112.890624v-78.414063c0-62.25-50.644532-112.894531-112.894532-112.894531s-112.890624 50.644531-112.890624 112.894531v78.414063c0 .660156.023437 1.3125.042968 1.96875l.035156 1.046874c.03125 1.082032-.378906 2.125-1.132812 2.894532-.75.777344-1.789062 1.210937-2.867188 1.210937zm0 0" fill="#3762cc"/><path d="m209.179688 114.320312h-52.925782c-5.285156 0-9.566406 4.890626-9.566406 10.917969v5.003907c0-8.339844-6.550781-15.105469-14.625-15.105469h-24.191406c-57.125 0-103.433594 47.832031-103.433594 106.835937v22.847656c0 5.457032 4.28125 9.882813 9.566406 9.882813h123.117188c5.285156 0 9.566406 4.421875 9.566406 9.878906v23.113281c.082031-.03125.167969-.054687.246094-.082031v88.035157c-.082032-.03125-.164063-.050782-.246094-.082032v80.539063c0 7.6875 5.460938 13.917969 12.195312 13.917969h81.382813c49.386719 0 89.421875-45.683594 89.421875-102.042969v-116.144531c0-75.945313-53.953125-137.515626-120.507812-137.515626zm0 0" fill="#4671c6"/><path d="m240.265625 474.027344h-81.382813c-8.929687 0-16.195312-8.039063-16.195312-17.917969v-80.542969c0-.476562.085938-.945312.246094-1.382812v-85.058594c-.164063-.453125-.246094-.9375-.246094-1.429688v-23.113281c0-3.242187-2.5-5.878906-5.566406-5.878906h-123.117188c-7.480468 0-13.566406-6.226563-13.566406-13.882813v-22.847656c0-61.113281 48.195312-110.832031 107.433594-110.832031h24.191406c5.101562 0 9.726562 2.113281 13.09375 5.53125 2.460938-3.835937 6.519531-6.347656 11.101562-6.347656h52.925782c68.652344 0 124.507812 63.480469 124.507812 141.515625v116.144531c-.003906 58.472656-41.914062 106.042969-93.425781 106.042969zm-89.578125-96.996094v79.078125c0 5.464844 3.675781 9.917969 8.195312 9.917969h81.378907c47.105469 0 85.425781-43.984375 85.425781-98.046875v-116.144531c0-73.621094-52.265625-133.515626-116.507812-133.515626h-52.925782c-3.066406 0-5.566406 3.105469-5.566406 6.917969v5.003907c0 2.207031-1.792969 4-4 4s-4-1.792969-4-4c0-6.125-4.765625-11.105469-10.625-11.105469h-24.191406c-54.828125 0-99.433594 46.132812-99.433594 102.832031v22.847656c0 3.246094 2.496094 5.882813 5.566406 5.882813h123.117188c7.480468 0 13.566406 6.226562 13.566406 13.878906v21.601563c.160156.449218.246094.933593.246094 1.429687v88.035156c0 .480469-.085938.949219-.246094 1.386719zm0 0" fill="#3762cc"/><path d="m191.21875 330.183594c0 22.855468-18.527344 41.382812-41.382812 41.382812-22.859376 0-41.386719-18.527344-41.386719-41.382812 0-22.855469 18.527343-41.382813 41.386719-41.382813 22.855468 0 41.382812 18.527344 41.382812 41.382813zm0 0" fill="#f9cfcf"/><path d="m261.710938 200.394531.007812-.003906c-1.160156-18.289063-15.5625-28.007813-19.691406-30.433594-2.355469-14.28125-15.777344-25.242187-32.03125-25.242187-.777344 0-1.539063.058594-2.300782.105468-4.761718-10.976562-16.445312-18.753906-30.128906-18.753906-7.210937 0-13.847656 2.183594-19.230468 5.828125-4.425782-2.070312-9.421876-3.261719-14.726563-3.261719-12.867187 0-23.945313 6.875-29.1875 16.816407-.457031.40625-.820313.742187-1.085937 1-.71875-.046875-1.433594-.101563-2.160157-.101563-17.8125 0-32.261719 13.15625-32.417969 29.433594-9.125 5.257812-15.207031 14.535156-15.207031 25.132812 0 15.488282 12.953125 28.195313 29.476563 29.566407l.011718.136719s10.804688 2.246093 21.691407-.625c3.757812 3.773437 14.996093 12.972656 35.035156 12.972656 4.628906 0 9.476563-.507813 14.46875-1.523438l4.4375-.96875c6.367187 4.128906 17.691406 5.355469 22.785156 5.710938.253907.007812 1.082031.007812 1.082031.007812.8125.03125 1.636719.050782 2.480469.050782 3.242188 0 6.542969-.261719 9.738281-.765626 5.261719-.738281 10.0625-2.042968 14.285157-3.875 1.554687.226563 2.925781 1.097657 3.6875 2.390626l10.585937 17.835937c.417969.710937.933594 1.351563 1.484375 1.957031 2.523438 4.140625 7.148438 6.683594 12.148438 6.683594h1.078125c7.773437 0 14.074218-6.042969 14.074218-13.496094v-52.429687c0-1.414063-.140624-2.796875-.390624-4.148438zm0 0" fill="#f9a7a7"/><path d="m248.027344 274.46875h-1.078125c-6.234375 0-12.082031-3.160156-15.359375-8.273438-.695313-.792968-1.261719-1.554687-1.71875-2.332031l-10.578125-17.832031c-.035157-.054688-.074219-.105469-.128907-.152344-4.179687 1.65625-8.832031 2.851563-13.851562 3.558594-4.238281.667969-8.75.917969-12.921875.75-.003906.007812-.785156.003906-1.042969-.003906-5.964844-.410156-16.347656-1.65625-23.359375-5.464844l-2.90625.628906c-5.28125 1.078125-10.417969 1.617188-15.316406 1.617188-19.128906 0-30.878906-7.867188-36.210937-12.585938-10.863282 2.273438-20.882813.246094-21.332032.152344-.199218-.042969-.394531-.097656-.582031-.164062-18.367187-2.007813-32.089844-16.21875-32.089844-33.453126 0-10.996093 5.679688-21.097656 15.308594-27.429687 1.429687-17.363281 17.234375-31.136719 36.316406-31.136719.125 0 .257813 0 .386719.003906 6.375-10.964843 18.519531-17.71875 32.042969-17.71875 4.984375 0 9.808593.921876 14.371093 2.75 5.875-3.484374 12.59375-5.316406 19.585938-5.316406 13.960938 0 26.445312 7.234375 32.582031 18.648438 17.375.066406 31.972657 11.191406 35.46875 26.761718 5.921875 3.851563 18.847657 14.289063 20.082031 32.484376.265626 1.535156.402344 3.078124.402344 4.582031v52.429687c.003906 9.644532-8.105468 17.496094-18.070312 17.496094zm-28.984375-36.867188c.191406 0 .386719.011719.578125.039063 2.78125.410156 5.167968 1.980469 6.550781 4.3125l10.582031 17.832031c.238282.402344.554688.816406 1.003906 1.304688.171876.1875.324219.394531.457032.613281 1.792968 2.9375 5.136718 4.765625 8.730468 4.765625h1.078126c5.554687 0 10.074218-4.261719 10.074218-9.5v-52.429688c0-1.113281-.109375-2.261718-.320312-3.417968-.042969-.230469-.066406-.460938-.066406-.6875-1.125-16.085938-13.832032-24.75-17.710938-27.03125-1.023438-.601563-1.726562-1.625-1.921875-2.796875-2.058594-12.480469-14.128906-21.890625-28.082031-21.890625-.585938 0-1.160156.039062-1.734375.078125l-.308594.019531c-1.664063.085938-3.253906-.851562-3.925781-2.402344-4.308594-9.929687-14.691406-16.34375-26.460938-16.34375-6.144531 0-12.023437 1.777344-16.988281 5.136719-1.167969.789063-2.664063.90625-3.9375.3125-4.089844-1.914063-8.476563-2.886719-13.03125-2.886719-10.878906 0-20.949219 5.765625-25.648437 14.683594-.226563.429688-.53125.8125-.894532 1.132812-.402344.355469-.71875.652344-.957031.878907-.804687.777343-1.898437 1.183593-3.015625 1.113281l-.433594-.027344c-.488281-.03125-.980468-.066406-1.484375-.066406-15.535156 0-28.28125 11.429688-28.417969 25.472656-.015624 1.417969-.777343 2.722656-2.003906 3.429688-8.269531 4.761718-13.203125 12.859375-13.203125 21.664062 0 13.363282 11.09375 24.359375 25.804688 25.578125.476562.042969.929687.164063 1.34375.355469 2.617187.414062 10.875 1.421875 19.011719-.722656 1.382812-.363282 2.84375.035156 3.851562 1.042968 3.535156 3.546876 13.746094 11.796876 32.203125 11.796876 4.363281 0 8.960937-.488282 13.667969-1.445313l4.386718-.953125c1.042969-.226562 2.132813-.027344 3.027344.550781 3.917969 2.539063 11.722656 4.4375 20.882813 5.078125.058593-.003906.804687-.003906.804687-.003906.921875.035156 1.691406.050781 2.480469.050781 3.03125 0 6.097656-.242187 9.117187-.714843 4.964844-.699219 9.421876-1.90625 13.3125-3.59375.507813-.21875 1.050782-.328126 1.597657-.328126zm0 0" fill="#3762cc"/><path d="m407.457031 4h-139.777343c-13.933594 0-25.226563 11.292969-25.226563 25.222656v112.941406l-24.953125 67.730469c-1.859375 5.050781 3.046875 9.957031 8.097656 8.097657l64.511719-23.765626h117.347656c13.929688 0 25.222657-11.292968 25.222657-25.222656v-139.78125c0-13.929687-11.292969-25.222656-25.222657-25.222656zm0 0" fill="#e0ebfc"/><path d="m223.375 222.394531c-2.671875 0-5.261719-1.046875-7.246094-3.03125-2.875-2.878906-3.789062-7.035156-2.382812-10.851562l24.710937-67.058594v-112.230469c0-16.113281 13.109375-29.222656 29.222657-29.222656h139.777343c16.113281 0 29.222657 13.109375 29.222657 29.222656v139.78125c0 16.113282-13.109376 29.21875-29.222657 29.21875h-116.632812l-63.84375 23.523438c-1.1875.4375-2.402344.648437-3.605469.648437zm44.304688-214.394531c-11.707032 0-21.222657 9.519531-21.222657 21.222656v112.941406c0 .472657-.085937.941407-.246093 1.382813l-24.953126 67.730469c-.460937 1.25.214844 2.113281.53125 2.425781.3125.316406 1.183594.996094 2.425782.535156l64.515625-23.769531c.445312-.164062.910156-.246094 1.382812-.246094h117.34375c11.703125 0 21.222657-9.519531 21.222657-21.222656v-139.78125c0-11.699219-9.519532-21.222656-21.222657-21.222656h-139.777343zm0 0" fill="#3762cc"/><path d="m389.449219 75.742188h-.742188c.160157-1.175782.246094-2.371094.246094-3.59375 0-14.800782-12-26.796876-26.800781-26.796876-1.976563 0-3.898438.21875-5.757813.625-4.21875-9.261718-13.550781-15.703124-24.390625-15.703124-14.804687 0-26.800781 12-26.800781 26.800781 0 .667969.03125 1.328125.082031 1.988281-3.128906-1.277344-6.546875-1.988281-10.132812-1.988281-14.015625 0-25.511719 10.761719-26.695313 24.46875h-.003906s-.15625 1.222656-.085937 3.167969c.054687 1.757812.273437 3.476562.652343 5.136718 1.527344 7.003906 6.34375 16.550782 20.855469 20.828125h99.574219c9.644531 0 17.464843-7.820312 17.464843-17.464843 0-9.648438-7.816406-17.46875-17.464843-17.46875zm0 0" fill="#4671c6"/><path d="m315.382812 149.613281c-.878906 0-1.773437-.195312-2.621093-.605469-2.980469-1.453124-4.21875-5.042968-2.769531-8.023437l14.800781-30.429687h-9.40625c-2.066407 0-3.988281-1.0625-5.085938-2.816407-1.097656-1.75-1.214843-3.945312-.3125-5.800781l19-39.136719c1.449219-2.980469 5.035157-4.226562 8.019531-2.777343 2.980469 1.449218 4.222657 5.039062 2.777344 8.019531l-14.816406 30.511719h9.417969c2.070312 0 3.992187 1.066406 5.085937 2.820312 1.097656 1.75 1.214844 3.945312.308594 5.804688l-19 39.054687c-1.035156 2.136719-3.171875 3.378906-5.398438 3.378906zm0 0" fill="#ffea92"/><path d="m353.652344 169.414062c-.878906 0-1.773438-.191406-2.621094-.605468-2.980469-1.449219-4.21875-5.039063-2.769531-8.019532l14.800781-30.429687h-9.40625c-2.066406 0-3.988281-1.0625-5.085938-2.816406-1.097656-1.75-1.214843-3.945313-.3125-5.804688l19-39.132812c1.449219-2.980469 5.035157-4.226563 8.019532-2.777344 2.980468 1.449219 4.226562 5.039063 2.777344 8.019531l-14.816407 30.511719h9.417969c2.070312 0 3.992188 1.066406 5.085938 2.820313 1.101562 1.75 1.214843 3.945312.308593 5.804687l-19 39.054687c-1.035156 2.136719-3.175781 3.375-5.398437 3.375zm0 0" fill="#ffea92"/><g fill="#3762cc"><path d="m142.285156 178.230469c-.097656 0-.195312-.003907-.296875-.007813-11.4375-.84375-20.011719-4.71875-25.480469-11.523437-7.703124-9.582031-6.117187-21.324219-6.042968-21.820313.316406-2.1875 2.363281-3.699218 4.527344-3.390625 2.183593.316407 3.699218 2.332031 3.390624 4.515625-.015624.128906-1.109374 8.941406 4.414063 15.75 4.027344 4.960938 10.683594 7.820313 19.78125 8.488282 2.203125.164062 3.859375 2.082031 3.695313 4.285156-.15625 2.101562-1.910157 3.703125-3.988282 3.703125zm0 0"/><path d="m114.722656 233.988281c-1.019531 0-2.039062-.386719-2.816406-1.167969-5.179688-5.167968-12.765625-18.707031-4.40625-32.945312 1.117188-1.90625 3.566406-2.546875 5.472656-1.425781 1.90625 1.117187 2.542969 3.570312 1.425782 5.476562-7.28125 12.398438 2.742187 22.808594 3.171874 23.25 1.542969 1.566407 1.539063 4.097657-.027343 5.648438-.777344.777343-1.800781 1.164062-2.820313 1.164062zm0 0"/><path d="m168.59375 244.515625c-1.777344 0-3.398438-1.195313-3.871094-2.992187-.554687-2.140626.726563-4.324219 2.867188-4.878907 13.917968-3.621093 14.191406-18.070312 14.195312-18.683593.019532-2.195313 1.804688-3.976563 4-3.976563h.015625c2.203125.007813 3.984375 1.785156 3.984375 3.988281.007813 7.316406-4.199218 22.253906-20.179687 26.414063-.339844.085937-.679688.128906-1.011719.128906zm0 0"/><path d="m189.40625 182.46875c-1.507812 0-2.949219-.851562-3.625-2.308594-4.25-9.101562-4.628906-17.191406-1.125-24.046875 6.117188-11.964843 21.84375-15.097656 22.507812-15.226562 2.1875-.421875 4.269532 1.007812 4.683594 3.175781.414063 2.164062-1.003906 4.257812-3.167968 4.675781-.152344.03125-12.609376 2.574219-16.914063 11.042969-2.304687 4.539062-1.878906 10.257812 1.265625 16.996094.933594 2.003906.066406 4.382812-1.933594 5.316406-.550781.253906-1.125.375-1.691406.375zm0 0"/></g></svg>