<?xml version="1.0"?>
<svg xmlns="http://www.w3.org/2000/svg" xmlns:xlink="http://www.w3.org/1999/xlink" xmlns:svgjs="http://svgjs.com/svgjs" version="1.1" width="512" height="512" x="0" y="0" viewBox="0 0 511.983 511.983" style="enable-background:new 0 0 512 512" xml:space="preserve" class=""><g><g xmlns="http://www.w3.org/2000/svg"><path d="m502.254 396.588-26.62-26.62 2.093-2.093c5.85-5.85 8.22-13.881 7.113-21.5 3.595-8.773 5.438-18.068 5.438-27.68v-221.93c0-40.406-32.868-73.279-73.269-73.279h-343.73c-40.406 0-73.279 32.872-73.279 73.279v221.93c0 40.406 32.873 73.279 73.279 73.279h84.911v28.776h-13.188c-18.678 0-33.873 15.196-33.873 33.874s15.195 33.874 33.873 33.874h200.276c18.678 0 33.874-15.196 33.874-33.874s-15.196-33.874-33.874-33.874h-13.188v-18.397c1.374.292 2.756.558 4.146.797 6.207 1.07 12.438 1.601 18.641 1.601 9.664 0 19.255-1.29 28.563-3.841-.092 6.58 2.361 13.188 7.37 18.198 4.767 4.766 11.103 7.39 17.842 7.39 6.74 0 13.076-2.625 17.843-7.39l2.088-2.088 26.62 26.62c6.486 6.486 15.006 9.729 23.525 9.729 8.521 0 17.04-3.243 23.526-9.729 12.972-12.973 12.972-34.08 0-47.052zm-487.254-77.893v-221.93c0-32.135 26.144-58.279 58.279-58.279h343.73c32.129 0 58.269 26.144 58.269 58.279v221.93c0 3.607-.341 7.153-.98 10.629-4.199-2.936-9.183-4.523-14.413-4.523-.124 0-.246.007-.37.009 4.188-15.28 4.99-31.321 2.255-47.193-1.576-9.151-4.301-17.951-8.061-26.261v-154.592c0-20.242-16.468-36.71-36.71-36.71h-301.019c-4.143 0-7.5 3.358-7.5 7.5s3.357 7.5 7.5 7.5h301.02c11.971 0 21.71 9.739 21.71 21.71v130.512c-2.251-2.735-4.628-5.385-7.161-7.918-42.338-42.337-111.228-42.334-153.569.007-20.51 20.51-31.805 47.779-31.804 76.784 0 15.504 3.231 30.51 9.368 44.255h-182.264c-11.971 0-21.71-9.739-21.71-21.71v-221.93c0-11.971 9.739-21.71 21.71-21.71h12.7c4.143 0 7.5-3.358 7.5-7.5s-3.357-7.5-7.5-7.5h-12.7c-20.242 0-36.71 16.468-36.71 36.71v221.93c0 20.242 16.468 36.71 36.71 36.71h190.457c4.085 6.247 8.841 12.122 14.242 17.523 1.396 1.396 2.836 2.735 4.296 4.046h-208.996c-32.135.001-58.279-26.143-58.279-58.278zm349.153 135.929c0 10.407-8.467 18.874-18.874 18.874h-200.276c-10.406 0-18.873-8.467-18.873-18.874s8.467-18.874 18.873-18.874h200.276c10.408 0 18.874 8.467 18.874 18.874zm-47.063-33.874h-143.9v-28.776h130.458c4.334 2.315 8.821 4.332 13.442 6.036zm-28.503-58.429c-17.676-17.675-27.41-41.176-27.411-66.172-.001-24.998 9.733-48.5 27.411-66.177 36.492-36.492 95.868-36.495 132.354-.007 27.164 27.163 34.918 68.722 19.518 103.81l-48.071 48.071c-35.083 15.394-76.639 7.637-103.801-19.525zm112.83 46.18c-3.99-3.99-3.99-10.481 0-14.471l51.232-51.232c1.933-1.933 4.502-2.997 7.235-2.997 2.732 0 5.302 1.064 7.234 2.997 3.99 3.99 3.99 10.481 0 14.471l-51.232 51.233c-3.987 3.987-10.48 3.989-14.469-.001zm90.229 24.532c-7.123 7.124-18.715 7.123-25.838 0l-26.62-26.62 25.838-25.838 26.62 26.62c7.125 7.123 7.125 18.714 0 25.838z" fill="#ffffff" data-original="#000000" style="" class=""/><path d="m407.193 348.577c14.006-14.006 21.719-32.626 21.719-52.432s-7.714-38.425-21.718-52.424c-14.001-14.007-32.619-21.72-52.426-21.72-19.806 0-38.426 7.713-52.432 21.718-14.006 14.001-21.72 32.619-21.72 52.426 0 19.805 7.714 38.426 21.72 52.432 9.895 9.895 22.297 16.758 35.867 19.849 4.044.919 8.059-1.609 8.979-5.647.92-4.039-1.608-8.059-5.646-8.979-10.812-2.463-20.699-7.937-28.593-15.831-11.173-11.173-17.326-26.027-17.326-41.825s6.153-30.649 17.326-41.818c11.173-11.173 26.026-17.326 41.825-17.326s30.649 6.153 41.818 17.327c11.173 11.168 17.325 26.019 17.325 41.817 0 15.799-6.153 30.653-17.329 41.828-7.882 7.891-17.765 13.365-28.579 15.828-4.038.92-6.566 4.94-5.646 8.979.792 3.478 3.883 5.836 7.306 5.836.552 0 1.112-.061 1.673-.189 13.576-3.091 25.976-9.956 35.857-19.849z" fill="#ffffff" data-original="#000000" style="" class=""/><path d="m119.26 248.433c-12.52 0-22.704 10.185-22.704 22.704s10.185 22.705 22.704 22.705h75.257c12.52 0 22.705-10.185 22.705-22.705s-10.186-22.704-22.705-22.704h-1.84v-54.022c0-12.161-9.895-22.055-22.056-22.055h-51.361c-12.52 0-22.704 10.185-22.704 22.705s10.185 22.704 22.704 22.704h5.656v30.668zm13.156-45.668h-13.156c-4.248 0-7.704-3.456-7.704-7.705s3.456-7.704 7.704-7.704h51.361c3.891 0 7.056 3.165 7.056 7.055v61.522c0 4.142 3.357 7.5 7.5 7.5h9.34c4.249 0 7.705 3.456 7.705 7.704s-3.456 7.705-7.705 7.705h-75.257c-4.248 0-7.704-3.456-7.704-7.705s3.456-7.704 7.704-7.704h13.156c4.143 0 7.5-3.358 7.5-7.5v-45.668c0-4.142-3.357-7.5-7.5-7.5z" fill="#ffffff" data-original="#000000" style="" class=""/><path d="m158.796 164.044c18.682 0 33.881-15.198 33.881-33.88s-15.199-33.88-33.881-33.88-33.88 15.199-33.88 33.88 15.198 33.88 33.88 33.88zm0-52.761c10.411 0 18.881 8.47 18.881 18.88s-8.47 18.88-18.881 18.88c-10.41 0-18.88-8.469-18.88-18.88s8.47-18.88 18.88-18.88z" fill="#ffffff" data-original="#000000" style="" class=""/></g></g></svg>
